<svg width="35" height="34" viewBox="0 0 35 34" fill="none" xmlns="http://www.w3.org/2000/svg">
<path fill-rule="evenodd" clip-rule="evenodd" d="M18.1492 22.6143V30.9604C18.3161 30.9717 18.423 30.8754 18.5408 30.8179C19.0145 30.5864 19.4838 30.3454 19.9557 30.11C22.1825 28.9977 24.4071 27.8817 26.6381 26.7785C26.9848 26.6072 27.1457 26.3688 27.1418 25.9833C27.1307 24.8857 27.136 23.7883 27.1305 22.6909C27.1302 22.6064 27.1785 22.5014 27.0601 22.4292C26.9546 22.477 26.8433 22.5229 26.736 22.5768C25.5376 23.1752 24.3342 23.7636 23.1447 24.3794C22.6809 24.6193 22.2652 24.6193 21.7998 24.3773C20.7082 23.8088 19.5996 23.2723 18.4967 22.7253C18.3909 22.6731 18.2915 22.5917 18.1492 22.6143ZM17.5041 31.0147V22.5883C17.3474 22.5912 17.2482 22.6691 17.1421 22.7216C16.0513 23.2618 14.9545 23.7904 13.8768 24.3563C13.387 24.613 12.9519 24.6237 12.4579 24.367C11.2582 23.7437 10.0404 23.1542 8.82935 22.5523C8.73643 22.5067 8.65166 22.4243 8.50862 22.4691C8.50862 23.0308 8.5094 23.5988 8.50835 24.1665C8.50704 24.7896 8.50914 25.4127 8.4989 26.0358C8.49339 26.3709 8.62384 26.6087 8.93355 26.7452C9.00756 26.778 9.07764 26.82 9.15008 26.857C11.8004 28.1801 14.4508 29.5032 17.1012 30.8252C17.2209 30.8851 17.3434 30.9394 17.5041 31.0147ZM3.84751 19.5592C4.00367 19.6379 4.08714 19.6815 4.17191 19.7219C5.33043 20.2797 6.49289 20.8298 7.64694 21.397C9.12934 22.1253 10.5695 22.9374 12.0781 23.6135C12.7521 23.9148 13.4235 23.9943 14.1065 23.6253C14.4395 23.4447 14.791 23.2991 15.1332 23.1358C15.8301 22.8035 16.5285 22.4749 17.2209 22.1337C17.3797 22.0555 17.5781 22.0064 17.6526 21.7867C14.6891 20.2983 11.7398 18.8167 8.7779 17.329C9.33065 16.9395 9.4506 16.8346 9.46163 16.4088C9.48971 15.3256 9.50493 14.2411 9.44955 13.1577C9.44745 13.1173 9.438 13.0774 9.43013 13.0375C9.34037 12.5734 9.10546 12.4254 8.6451 12.544C8.56688 12.5643 8.48867 12.5889 8.41544 12.6223C6.8858 13.3107 5.4118 14.1094 3.85512 14.8918C5.40707 15.6768 6.91152 16.438 8.46583 17.2246C6.91362 18.0091 5.41836 18.765 3.84751 19.5592ZM17.8476 21.8489C17.9933 21.9904 18.1245 22.0316 18.2445 22.0925C19.4169 22.6846 20.5948 23.2649 21.7597 23.872C22.2486 24.1266 22.7003 24.1337 23.1862 23.8741C23.8904 23.4977 24.6087 23.1479 25.3221 22.7893C27.2929 21.798 29.2648 20.8083 31.2349 19.8154C31.3874 19.7385 31.5509 19.6728 31.7013 19.5196C30.19 18.7561 28.7084 18.0072 27.162 17.2262C28.7194 16.4356 30.2168 15.6758 31.7687 14.8881C30.473 14.2369 29.247 13.6309 28.0318 13.0052C27.6284 12.7973 27.2108 12.6606 26.7678 12.5837C26.336 12.5084 26.1643 12.6498 26.1562 13.0965C26.1549 13.1779 26.162 13.259 26.1633 13.3404C26.1764 14.1671 26.1961 14.9942 26.1412 15.8204C26.0998 16.4469 26.3003 16.9401 26.9116 17.2038C26.9465 17.2188 26.9517 17.2403 26.8761 17.3199C23.9171 18.8041 20.8948 20.3203 17.8476 21.8489ZM8.03828 11.5813C8.05035 11.6068 8.06269 11.6322 8.07502 11.658C8.68263 11.658 9.2905 11.6546 9.8981 11.659C10.239 11.6616 10.3616 11.7758 10.3965 12.1081C10.4065 12.2021 10.4052 12.2976 10.4049 12.3926C10.401 13.7616 10.4078 15.1314 10.3855 16.5007C10.3771 17.0272 10.5808 17.3681 11.055 17.5928C13.1096 18.5658 15.1398 19.5889 17.1626 20.6253C17.6153 20.8571 18.0148 20.8626 18.4676 20.629C20.4867 19.5862 22.5184 18.5679 24.5701 17.5897C25.026 17.3721 25.2436 17.0655 25.2331 16.5432C25.2056 15.1879 25.2142 13.832 25.2103 12.4766C25.2098 12.3412 25.204 12.2031 25.2279 12.0713C25.2825 11.7708 25.4168 11.6645 25.7305 11.659C26.0153 11.6538 26.3 11.658 26.5848 11.658H27.667C27.5268 11.5105 27.442 11.4084 27.3446 11.3207C26.104 10.2068 24.8678 9.08713 23.614 7.98766C23.336 7.74409 23.2098 7.4958 23.219 7.12022C23.2442 6.10369 23.2282 5.08638 23.2274 4.06933C23.2271 3.66592 23.2258 3.66435 22.8389 3.6633C22.2694 3.66172 21.6998 3.65989 21.1303 3.66461C20.929 3.66619 20.6759 3.58062 20.5387 3.70135C20.3778 3.84282 20.4956 4.11028 20.4757 4.32182C20.4523 4.56565 20.5143 4.81814 20.4308 5.06643C20.2841 5.00974 20.2059 4.91342 20.1164 4.83232C19.4825 4.26014 18.8513 3.68482 18.2156 3.11475C17.8138 2.75438 17.8106 2.7578 17.418 3.11212C14.8411 5.43677 12.2642 7.76142 9.68761 10.0866C9.13696 10.5834 8.58788 11.0829 8.03828 11.5813ZM0.887695 16.8944C0.933889 7.54882 8.59339 0.0943031 17.5944 0.00112915C26.9365 -0.095459 34.7511 7.60893 34.7469 16.9101C34.743 25.745 27.541 33.8394 17.8671 33.8496C8.47318 33.8588 0.942813 26.2812 0.887695 16.8944Z" fill="#142B35"/>
<path fill-rule="evenodd" clip-rule="evenodd" d="M18.1492 22.6139C18.2914 22.5913 18.3909 22.6727 18.4967 22.7249C19.5995 23.2719 20.7082 23.8084 21.7998 24.3769C22.2651 24.6189 22.6809 24.6189 23.1447 24.379C24.3341 23.7633 25.5375 23.1748 26.736 22.5764C26.8433 22.5226 26.9546 22.4766 27.0601 22.4289C27.1785 22.5011 27.1302 22.606 27.1304 22.6906C27.136 23.7879 27.1307 24.8853 27.1417 25.9829C27.1457 26.3685 26.9848 26.6068 26.6381 26.7782C24.4071 27.8813 22.1825 28.9973 19.9557 30.1096C19.4838 30.3451 19.0145 30.586 18.5408 30.8175C18.4229 30.875 18.3161 30.9713 18.1492 30.96V22.6139Z" fill="#F2B91D"/>
<path fill-rule="evenodd" clip-rule="evenodd" d="M17.5041 31.0146C17.3435 30.9393 17.2209 30.885 17.1012 30.8249C14.4509 29.5029 11.8005 28.1798 9.15012 26.8567C9.07768 26.8199 9.0076 26.7777 8.93359 26.7449C8.62388 26.6087 8.49343 26.3709 8.49895 26.0354C8.50918 25.4126 8.50708 24.7895 8.5084 24.1664C8.50945 23.5987 8.50866 23.0307 8.50866 22.4691C8.6517 22.4242 8.73648 22.5063 8.82939 22.552C10.0404 23.1538 11.2582 23.7433 12.458 24.3667C12.9519 24.6236 13.3871 24.6129 13.8768 24.3559C14.9545 23.7903 16.0514 23.2614 17.1422 22.7216C17.2482 22.6691 17.3474 22.5911 17.5041 22.5882V31.0146Z" fill="#F2B91D"/>
<path fill-rule="evenodd" clip-rule="evenodd" d="M3.84766 19.559C5.41851 18.7648 6.91403 18.0089 8.46598 17.2241C6.91167 16.4375 5.40722 15.6766 3.85527 14.8916C5.41194 14.1089 6.88621 13.3103 8.41559 12.6218C8.48908 12.5885 8.56703 12.5641 8.64525 12.5436C9.10561 12.425 9.34051 12.5733 9.43028 13.037C9.43815 13.0772 9.4476 13.1171 9.4497 13.1573C9.50534 14.2407 9.48986 15.3255 9.46204 16.4087C9.45101 16.8341 9.33106 16.9394 8.77831 17.3289C11.74 18.8165 14.6893 20.2979 17.653 21.7863C17.5782 22.006 17.3801 22.0553 17.2213 22.1335C16.5286 22.4745 15.8302 22.8031 15.1334 23.1356C14.7911 23.2989 14.4397 23.4445 14.1066 23.6249C13.4237 23.9939 12.7523 23.9146 12.0783 23.6131C10.5696 22.9372 9.12949 22.1249 7.64736 21.3968C6.4933 20.8296 5.33058 20.2795 4.17206 19.7218C4.08729 19.6813 4.00409 19.6378 3.84766 19.559Z" fill="#F2B91D"/>
<path fill-rule="evenodd" clip-rule="evenodd" d="M17.848 21.8485C20.8952 20.3199 23.9175 18.8036 26.8765 17.3194C26.9521 17.2399 26.9469 17.2183 26.912 17.2034C26.3007 16.9396 26.1002 16.4464 26.1419 15.8199C26.1965 14.9937 26.1768 14.1667 26.1637 13.3399C26.1624 13.2585 26.1553 13.1774 26.1569 13.0961C26.1647 12.6494 26.3364 12.5079 26.7684 12.5832C27.2112 12.6601 27.629 12.7969 28.0322 13.0047C29.2476 13.6304 30.4734 14.2365 31.7694 14.8877C30.2172 15.6753 28.7198 16.4351 27.1624 17.2257C28.7088 18.0068 30.1904 18.7556 31.702 19.5191C31.5513 19.6724 31.3878 19.738 31.2356 19.8149C29.2652 20.8078 27.2936 21.7976 25.3228 22.7889C24.6091 23.1474 23.8907 23.4973 23.1868 23.8737C22.701 24.1332 22.249 24.1261 21.7601 23.8716C20.5955 23.2647 19.4173 22.6842 18.2451 22.092C18.1252 22.0312 17.994 21.9899 17.848 21.8485Z" fill="#F2B91D"/>
<path fill-rule="evenodd" clip-rule="evenodd" d="M16.0144 14.7477C16.0144 15.696 16.0128 16.6445 16.0154 17.5928C16.0165 17.8907 16.022 17.8983 16.2978 17.8993C17.3005 17.9028 18.3031 17.8962 19.3057 17.9043C19.5185 17.9064 19.5836 17.8337 19.5829 17.6235C19.5766 15.7401 19.5802 13.8566 19.5779 11.9737C19.5773 11.6949 19.5697 11.6879 19.2752 11.6868C18.2863 11.6837 17.297 11.6834 16.3081 11.6871C16.0225 11.6879 16.0165 11.6957 16.0154 11.9837C16.0128 12.9049 16.0144 13.8262 16.0144 14.7477ZM8.03809 11.581C8.58769 11.0826 9.13676 10.5831 9.68768 10.086C12.264 7.76113 14.8409 5.43648 17.4178 3.11184C17.8104 2.75751 17.8136 2.7541 18.2154 3.11446C18.8514 3.68453 19.4823 4.25986 20.1162 4.83203C20.2059 4.91287 20.2842 5.00919 20.4306 5.06615C20.5141 4.81785 20.4521 4.56536 20.4755 4.32127C20.4954 4.10973 20.3779 3.84254 20.5385 3.70107C20.6758 3.58033 20.9288 3.66563 21.1303 3.66406C21.6999 3.65933 22.2692 3.66144 22.8387 3.66301C23.2256 3.66406 23.2269 3.66563 23.2272 4.06904C23.228 5.08583 23.244 6.10314 23.2188 7.11993C23.2098 7.49552 23.3361 7.74355 23.6138 7.98738C24.8676 9.08684 26.1038 10.2063 27.3445 11.3201C27.4421 11.4078 27.5266 11.5102 27.6668 11.6577H26.5846C26.2998 11.6577 26.0151 11.6535 25.7306 11.6585C25.4166 11.6642 25.2823 11.7703 25.2279 12.0711C25.2041 12.2028 25.2098 12.3409 25.2101 12.4763C25.2143 13.8317 25.2054 15.1876 25.2332 16.5429C25.2437 17.0652 25.0258 17.3718 24.5699 17.5894C22.5185 18.5676 20.4865 19.5859 18.4674 20.6285C18.0149 20.8623 17.6154 20.8565 17.1627 20.625C15.1396 19.5883 13.1094 18.5655 11.0549 17.5925C10.5806 17.3676 10.3769 17.0269 10.3853 16.5004C10.4079 15.1311 10.4008 13.7613 10.4047 12.3921C10.405 12.2973 10.4063 12.2018 10.3963 12.1075C10.3614 11.7755 10.2389 11.6611 9.89791 11.6585C9.2903 11.6543 8.68244 11.6577 8.07483 11.6577C8.06249 11.632 8.05016 11.6062 8.03809 11.581Z" fill="#ABD2D9"/>
<path fill-rule="evenodd" clip-rule="evenodd" d="M16.0146 14.7476C16.0146 13.8261 16.013 12.9048 16.0156 11.9836C16.0167 11.6957 16.0227 11.6878 16.3083 11.687C17.2972 11.6833 18.2865 11.6836 19.2754 11.6867C19.5699 11.6878 19.5775 11.6949 19.578 11.9736C19.5804 13.8565 19.5767 15.74 19.583 17.6234C19.5838 17.8336 19.5187 17.9064 19.3059 17.9043C18.3033 17.8961 17.3006 17.9027 16.298 17.8993C16.0222 17.8982 16.0167 17.8906 16.0156 17.5927C16.013 16.6444 16.0146 15.6959 16.0146 14.7476Z" fill="#142B35"/>
</svg>
