<?xml version="1.0" encoding="utf-8"?><svg viewBox="0 0 88 88" xmlns="http://www.w3.org/2000/svg" xmlns:xlink="http://www.w3.org/1999/xlink"><style>:root>svg{display:none}:root>svg:target{display:block}</style><svg fill="none" viewBox="0 0 88 88" id="commerical_moving" xmlns="http://www.w3.org/2000/svg"><g clip-path="url(#aa)" fill="#3A98B2"><path d="M66.875 67H43.958a1.042 1.042 0 0 1-1.041-1.042V43.042c0-.575.466-1.042 1.041-1.042h22.917c.575 0 1.042.467 1.042 1.042v22.916c0 .575-.467 1.042-1.042 1.042ZM45 64.917h20.833V44.083H45v20.834Z"/><path d="M55.417 44.083H32.5a1.042 1.042 0 0 1-1.042-1.041V20.125c0-.575.467-1.042 1.042-1.042h22.917c.575 0 1.041.467 1.041 1.042v22.917c0 .575-.466 1.041-1.041 1.041ZM33.542 42h20.833V21.167H33.542V42Z"/><path d="M47.083 29.5h-6.25a1.042 1.042 0 0 1-1.041-1.042v-8.333c0-.575.466-1.042 1.041-1.042h6.25c.575 0 1.042.467 1.042 1.042v8.333c0 .575-.467 1.042-1.042 1.042Zm-5.208-2.083h4.167v-6.25h-4.167v6.25ZM58.542 52.417h-6.25a1.042 1.042 0 0 1-1.042-1.042v-8.333c0-.575.467-1.042 1.042-1.042h6.25c.575 0 1.041.467 1.041 1.042v8.333c0 .575-.466 1.042-1.041 1.042Zm-5.209-2.084H57.5v-6.25h-4.167v6.25ZM43.958 67H21.042A1.042 1.042 0 0 1 20 65.958V43.042c0-.575.467-1.042 1.042-1.042h22.916c.575 0 1.042.467 1.042 1.042v22.916c0 .575-.467 1.042-1.042 1.042Zm-21.875-2.083h20.834V44.083H22.083v20.834Z"/><path d="M35.625 52.417h-6.25a1.042 1.042 0 0 1-1.042-1.042v-8.333c0-.575.467-1.042 1.042-1.042h6.25c.575 0 1.042.467 1.042 1.042v8.333c0 .575-.467 1.042-1.042 1.042Zm-5.208-2.084h4.166v-6.25h-4.166v6.25Z"/></g><circle opacity=".3" cx="44" cy="44" r="44" fill="#ABD2D9"/><defs><clipPath id="aa"><path fill="#fff" transform="translate(19 16)" d="M0 0h50v52H0z"/></clipPath></defs></svg><svg fill="none" viewBox="0 0 52 52" id="furniture_disassembly_service" xmlns="http://www.w3.org/2000/svg"><path d="M49.081 31.613c0 1.775-1.432 3.219-3.192 3.219H6.11c-1.76 0-3.191-1.444-3.191-3.219V19.321c0-.57.46-1.034 1.025-1.034h2.124c.652 0 1.025.613 1.025 1.683v9.148c0 .465.94 1.152 1.786 1.152h34.242c.845 0 1.786-.687 1.786-1.152V19.97c0-1.07.373-1.683 1.025-1.683h2.124a1.03 1.03 0 0 1 1.025 1.034v12.292Zm-3.456 7.81a.836.836 0 0 1-.651.291.826.826 0 0 1-.72-.425l-2.012-3.612h3.09l.48 3.074a.837.837 0 0 1-.187.671Zm-37.879-.134a.835.835 0 0 1-.742.425.823.823 0 0 1-.629-.292.837.837 0 0 1-.188-.67l.482-3.075h3.089L7.746 39.29Zm.186-23.934c0-1.119.903-2.03 2.013-2.03h7.46c1.11 0 2.013.911 2.013 2.03v9.674H7.932v-9.674Zm14.338-2.03h7.46c1.11 0 2.013.911 2.013 2.03v9.674H20.257v-9.674c0-1.119.903-2.03 2.013-2.03Zm12.325 0h7.46c1.11 0 2.013.911 2.013 2.03v9.675H32.582v-9.675c0-1.119.903-2.03 2.013-2.03ZM7.932 25.875h36.136v3.122c-.134.139-.516.427-.947.427H8.879c-.431 0-.813-.288-.947-.427v-3.122Zm40.124-8.433h-2.124a1.68 1.68 0 0 0-1.025.338v-2.425c0-1.586-1.28-2.875-2.852-2.875h-7.46c-1.028 0-1.93.55-2.433 1.376a2.848 2.848 0 0 0-2.432-1.376h-7.46c-1.027 0-1.93.55-2.432 1.376a2.848 2.848 0 0 0-2.433-1.376h-7.46c-1.572 0-2.852 1.29-2.852 2.875v2.425a1.68 1.68 0 0 0-1.025-.338H3.944A1.873 1.873 0 0 0 2.08 19.32v12.292c0 2.143 1.654 3.903 3.741 4.052L5.36 38.62c-.077.485.062.978.379 1.352a1.67 1.67 0 0 0 1.288.588c.601 0 1.158-.328 1.451-.857l2.243-4.026h30.56l2.242 4.026c.294.529.85.857 1.474.857.488 0 .95-.215 1.266-.588.317-.374.456-.867.38-1.352l-.463-2.955c2.087-.15 3.741-1.909 3.741-4.052V19.321a1.873 1.873 0 0 0-1.864-1.88Z" fill="#3A98B2"/></svg><svg fill="none" viewBox="0 0 35 34" id="logo" xmlns="http://www.w3.org/2000/svg"><path fill-rule="evenodd" clip-rule="evenodd" d="M18.15 22.614v8.346c.166.012.273-.085.39-.142.475-.232.944-.473 1.416-.708 2.227-1.112 4.451-2.228 6.682-3.331.347-.172.508-.41.504-.796-.011-1.097-.006-2.195-.011-3.292 0-.085.047-.19-.07-.262-.106.048-.218.094-.325.148-1.198.598-2.402 1.187-3.591 1.802-.464.24-.88.24-1.345-.002-1.092-.568-2.2-1.105-3.303-1.652-.106-.052-.206-.133-.348-.11Zm-.646 8.4v-8.426c-.157.003-.256.081-.362.134-1.09.54-2.188 1.068-3.265 1.634-.49.257-.925.268-1.42.011-1.199-.623-2.417-1.213-3.628-1.815-.093-.045-.177-.128-.32-.083v1.697c-.002.624 0 1.247-.01 1.87-.006.335.125.573.435.71.074.032.144.074.216.111l7.951 3.968c.12.06.242.114.403.19ZM3.848 19.56c.156.079.24.122.324.163 1.158.558 2.32 1.108 3.475 1.675 1.482.728 2.922 1.54 4.431 2.216.674.302 1.346.381 2.029.012.333-.18.684-.326 1.026-.49.697-.332 1.396-.66 2.088-1.001.159-.079.357-.128.432-.347l-8.875-4.458c.553-.39.673-.494.684-.92.028-1.083.043-2.168-.012-3.251-.003-.04-.012-.08-.02-.12-.09-.465-.325-.613-.785-.494-.078.02-.156.045-.23.078-1.53.689-3.003 1.487-4.56 2.27l4.61 2.333-4.617 2.334Zm14 2.29c.145.141.277.183.396.244 1.173.592 2.35 1.172 3.516 1.779.489.255.94.262 1.426.002.704-.376 1.423-.726 2.136-1.085 1.97-.991 3.943-1.98 5.913-2.974.152-.077.316-.142.466-.295l-4.539-2.294 4.607-2.338c-1.296-.651-2.522-1.257-3.737-1.883a4.352 4.352 0 0 0-1.264-.421c-.432-.076-.604.066-.612.513-.001.08.006.162.007.243.013.827.033 1.654-.022 2.48-.041.627.16 1.12.77 1.384.035.015.04.036-.035.116l-9.028 4.529ZM8.038 11.58l.037.077c.608 0 1.216-.003 1.823.001.341.003.464.117.498.45.01.093.01.189.009.284-.004 1.369.003 2.738-.02 4.108-.008.526.196.867.67 1.092a218.54 218.54 0 0 1 6.108 3.032c.452.232.852.238 1.305.004 2.019-1.043 4.05-2.061 6.102-3.04.456-.217.674-.523.663-1.046-.027-1.355-.019-2.711-.023-4.066 0-.136-.006-.274.018-.406.054-.3.189-.406.502-.412.285-.005.57-.001.855-.001h1.082c-.14-.147-.225-.25-.322-.337-1.241-1.114-2.477-2.234-3.731-3.333-.278-.244-.404-.492-.395-.868.025-1.016.01-2.034.008-3.05 0-.404-.001-.406-.388-.407-.57-.001-1.14-.003-1.709.002-.201.001-.454-.084-.591.036-.161.142-.043.41-.063.62-.024.245.038.497-.045.745-.147-.056-.225-.153-.315-.234-.633-.572-1.265-1.147-1.9-1.717-.402-.36-.405-.357-.798-.003l-7.73 6.975c-.551.496-1.1.996-1.65 1.494Zm-7.15 5.313C.934 7.55 8.593.094 17.594.001c9.342-.096 17.157 7.608 17.153 16.91-.004 8.834-7.206 16.928-16.88 16.939C8.473 33.859.943 26.28.887 16.894Z" fill="#142B35"/><path fill-rule="evenodd" clip-rule="evenodd" d="M18.15 22.614c.141-.023.24.059.347.11 1.102.548 2.211 1.084 3.303 1.653.465.242.88.242 1.345.002 1.19-.616 2.393-1.204 3.591-1.803.107-.053.219-.1.324-.147.119.072.07.177.07.262.006 1.097 0 2.194.012 3.292.004.386-.157.624-.504.795-2.23 1.103-4.456 2.22-6.682 3.332-.472.235-.941.476-1.415.707-.118.058-.225.154-.392.143v-8.346ZM17.504 31.015c-.16-.076-.283-.13-.403-.19l-7.95-3.968c-.073-.037-.143-.08-.217-.112-.31-.136-.44-.374-.435-.71.01-.622.008-1.245.01-1.869V22.47c.143-.045.227.037.32.083 1.211.602 2.43 1.191 3.629 1.815.494.257.93.246 1.419-.011 1.077-.566 2.174-1.095 3.265-1.634.106-.053.205-.13.362-.134v8.427Z" fill="#F2B91D"/><path fill-rule="evenodd" clip-rule="evenodd" d="m3.848 19.559 4.618-2.335-4.61-2.332c1.556-.783 3.03-1.582 4.56-2.27a1.44 1.44 0 0 1 .23-.078c.46-.119.695.03.784.493.008.04.018.08.02.12.055 1.084.04 2.168.012 3.252-.011.425-.13.53-.684.92l8.875 4.457c-.075.22-.273.27-.432.348-.692.34-1.39.67-2.088 1.002-.342.163-.693.309-1.026.489-.683.369-1.355.29-2.029-.012-1.508-.676-2.949-1.488-4.43-2.216-1.155-.567-2.317-1.117-3.476-1.675-.085-.04-.168-.084-.324-.163ZM17.848 21.849c3.047-1.53 6.07-3.045 9.029-4.53.075-.08.07-.1.035-.116-.611-.263-.812-.757-.77-1.383.055-.826.035-1.653.022-2.48-.002-.082-.009-.163-.007-.244.008-.447.18-.588.611-.513.443.077.861.214 1.264.422 1.216.625 2.441 1.231 3.737 1.883l-4.607 2.338c1.547.78 3.028 1.53 4.54 2.293-.15.153-.314.219-.466.296-1.97.993-3.942 1.983-5.913 2.974-.714.358-1.432.708-2.136 1.085-.486.26-.938.252-1.427-.002-1.165-.607-2.343-1.188-3.515-1.78-.12-.06-.251-.102-.397-.243Z" fill="#F2B91D"/><path fill-rule="evenodd" clip-rule="evenodd" d="M16.014 14.748c0 .948-.001 1.897.001 2.845.002.298.007.305.283.306 1.003.004 2.005-.003 3.008.005.212.002.278-.07.277-.28-.006-1.884-.003-3.767-.005-5.65 0-.28-.008-.286-.303-.287-.989-.003-1.978-.004-2.967 0-.285 0-.291.009-.293.297-.002.92 0 1.842 0 2.764ZM8.038 11.58c.55-.498 1.099-.998 1.65-1.495l7.73-6.974c.392-.354.396-.358.797.002.636.57 1.267 1.146 1.901 1.718.09.08.168.177.315.234.083-.248.021-.5.044-.745.02-.211-.097-.478.063-.62.138-.12.39-.035.592-.037.57-.005 1.14-.003 1.709-.001.387.001.388.003.388.406.001 1.017.017 2.034-.008 3.05-.01.377.117.625.395.868 1.254 1.1 2.49 2.22 3.73 3.333.098.088.183.19.323.338h-1.082c-.285 0-.57-.005-.854 0-.314.006-.449.112-.503.413-.024.132-.018.27-.018.405.004 1.356-.005 2.712.023 4.067.01.522-.207.829-.663 1.046a215.046 215.046 0 0 0-6.103 3.04c-.452.233-.852.227-1.304-.004a218.273 218.273 0 0 0-6.108-3.032c-.474-.225-.678-.566-.67-1.093.023-1.369.016-2.739.02-4.108 0-.095.001-.19-.009-.284-.035-.333-.157-.447-.498-.45-.608-.004-1.216 0-1.823 0l-.037-.077Z" fill="#ABD2D9"/><path fill-rule="evenodd" clip-rule="evenodd" d="M16.015 14.748c0-.922-.002-1.843 0-2.764.002-.288.008-.296.293-.297.99-.004 1.979-.003 2.967 0 .295 0 .303.008.303.287.002 1.883-.001 3.766.005 5.65 0 .21-.064.282-.277.28-1.003-.008-2.005-.001-3.008-.005-.276 0-.281-.008-.282-.306-.003-.949-.001-1.897-.001-2.845Z" fill="#142B35"/></svg><svg fill="none" viewBox="0 0 88 88" id="long_distance_movers" xmlns="http://www.w3.org/2000/svg"><circle opacity=".3" cx="44" cy="44" r="44" fill="#ABD2D9"/><path d="M53.738 37.677a3.071 3.071 0 1 0 0 6.142 3.071 3.071 0 0 0 0-6.142Zm0 4.607c-.847 0-1.536-.689-1.536-1.536 0-.846.69-1.535 1.536-1.535.847 0 1.536.689 1.536 1.535 0 .847-.69 1.536-1.536 1.536ZM32.366 29.999a2.559 2.559 0 1 0 0 5.12 2.559 2.559 0 0 0 0-5.12Zm0 3.583a1.025 1.025 0 1 1 .003-2.049 1.025 1.025 0 0 1-.003 2.05Z" fill="#3A98B2"/><path d="m62.964 29.269-10.262-1.1a20.37 20.37 0 0 0-2.036-.09c-.738 0-1.476.03-2.036.09l-10.261 1.1c-.183.02-.387.035-.601.048a6.688 6.688 0 0 0-5.53-2.901 6.69 6.69 0 0 0-4.885 2.109l-3.317-.355a1.96 1.96 0 0 0-.216-.012c-1.019 0-1.82.788-1.82 1.841v27.13c0 1.127.916 2.146 2.036 2.266l10.262 1.1c.56.06 1.297.09 2.035.09.739 0 1.476-.03 2.036-.09l10.262-1.1c.56-.06 1.297-.09 2.036-.09.738 0 1.475.03 2.035.09l10.262 1.1c.074.007.145.01.216.01 1.019 0 1.82-.787 1.82-1.84v-27.13c0-1.127-.916-2.146-2.036-2.266ZM35.566 59.036a15.152 15.152 0 0 1-1.104-.069l-10.261-1.1c-.342-.036-.664-.395-.664-.738v-27.13c0-.194.103-.306.284-.306l.053.003 2.454.263a6.37 6.37 0 0 0-.744 2.984c0 3.192 4.602 8.355 5.525 9.357l1.13 1.229 1.13-1.229a40.292 40.292 0 0 0 2.197-2.617v19.352ZM32.239 41.26s-5.12-5.562-5.12-8.317c0-2.758 2.294-4.992 5.12-4.992s5.119 2.234 5.119 4.992c0 2.755-5.12 8.317-5.12 8.317Zm17.66 16.521a18.63 18.63 0 0 0-1.431.086l-10.263 1.1c-.302.032-.687.054-1.103.067V37.5c.994-1.566 1.791-3.23 1.791-4.556 0-.753-.137-1.473-.377-2.146l.017-.001 10.262-1.1c.302-.032.687-.054 1.104-.068v4.993c-2.292 1.33-3.84 3.806-3.84 6.64 0 2.305 2.016 5.523 3.84 7.964v8.556Zm-2.304-16.52a6.142 6.142 0 0 1 6.143-6.143 6.142 6.142 0 0 1 6.143 6.143c0 3.39-6.143 10.237-6.143 10.237s-6.143-6.846-6.143-10.237Zm15.869 17.403c0 .194-.104.306-.284.306l-.053-.003-10.261-1.1c-.405-.043-.9-.072-1.432-.086v-6.607a46.74 46.74 0 0 0 1.16 1.35l1.144 1.273 1.143-1.273c1.091-1.217 6.535-7.476 6.535-11.263 0-4.234-3.444-7.678-7.678-7.678-.802 0-1.575.124-2.303.354v-4.309c.416.014.801.036 1.104.068l10.261 1.1c.341.036.664.396.664.738v27.13Z" fill="#3A98B2"/></svg><svg fill="none" viewBox="0 0 24 24" id="map_point" xmlns="http://www.w3.org/2000/svg"><path d="M11.903 5.981a3 3 0 1 0 0 6 3 3 0 0 0 0-6Zm0 4.5a1.5 1.5 0 1 1 0-3 1.5 1.5 0 0 1 0 3Z" fill="#3A98B2"/><path d="M17.668 3.212A8.153 8.153 0 0 0 5.072 13.426l5.667 8.7a1.388 1.388 0 0 0 2.327 0l5.668-8.7a8.153 8.153 0 0 0-1.067-10.214Zm-.191 9.395-5.574 8.557-5.574-8.557a6.683 6.683 0 0 1 .87-8.335 6.652 6.652 0 0 1 9.408 0 6.683 6.683 0 0 1 .87 8.335Z" fill="#3A98B2"/></svg><svg fill="none" viewBox="0 0 88 88" id="packing_and_unpacking_services" xmlns="http://www.w3.org/2000/svg"><circle opacity=".3" cx="44" cy="44" r="44" fill="#ABD2D9"/><path d="M54.716 48.906 48.1 45.473l11.69-9.23 6.673 3.037-11.746 9.626Zm4.507 5.118L47.659 65.242V46.4l6.895 3.577c.173.09.38.068.532-.057l4.137-3.39v7.494Zm-30.85-8.01 11.082 6.119a.487.487 0 0 0 .542-.05l6.666-5.454v18.854l-18.29-9.65v-9.818Zm-.421-9.471 18.274 9.127-6.59 5.392-18.03-9.955 6.346-4.564Zm-6.35-4.245 12.164-8.139 5.976 2.853-11.88 8.342-6.26-3.056Zm18.653 9.243-11.352-5.67 11.352-7.97v13.64Zm6.847 3.42-5.85-2.922V27.72l17.496 8.046-11.646 9.194Zm-.665-21.695 18.257 7.958-5.035 3.83-17.915-8.237 4.693-3.551Zm21.479 15.82a.515.515 0 0 0-.294-.407l-6.91-3.144 5.28-4.017a.525.525 0 0 0-.101-.893L46.564 22.2a.483.483 0 0 0-.486.059l-5.382 4.071-6.762-3.228a.484.484 0 0 0-.478.035l-13.148 8.797a.523.523 0 0 0-.227.469.518.518 0 0 0 .285.433l6.547 3.197-6.546 4.708a.522.522 0 0 0-.214.455c.01.18.11.34.263.425l6.962 3.844V56.15a.52.52 0 0 0 .272.462l19.357 10.212a.485.485 0 0 0 .566-.082l12.488-12.115a.527.527 0 0 0 .158-.377v-8.536l7.512-6.155a.528.528 0 0 0 .185-.472Z" fill="#3A98B2"/></svg><svg fill="none" viewBox="0 0 18 18" id="phone" xmlns="http://www.w3.org/2000/svg"><path d="M13.865 17.72c-.168 0-.336-.019-.5-.055a16.955 16.955 0 0 1-8.31-4.375 16.355 16.355 0 0 1-4.5-8.125 2.29 2.29 0 0 1 .675-2.14l2-1.925A1 1 0 0 1 4 .83a1 1 0 0 1 .725.435l2.5 3.695a.8.8 0 0 1-.055.95l-1.255 1.5A9.47 9.47 0 0 0 8 10.355a9.63 9.63 0 0 0 3.035 2.045l1.555-1.235a.82.82 0 0 1 .93-.06l3.775 2.44A1 1 0 0 1 17.5 15.1l-1.95 1.93a2.37 2.37 0 0 1-1.685.69ZM3.92 1.82l-2 1.925a1.27 1.27 0 0 0-.375 1.2 15.35 15.35 0 0 0 4.205 7.63 15.95 15.95 0 0 0 7.82 4.115 1.375 1.375 0 0 0 1.25-.37l1.95-1.93-3.645-2.355-1.67 1.33a.5.5 0 0 1-.46.085 10.03 10.03 0 0 1-3.68-2.375 9.745 9.745 0 0 1-2.435-3.6A.5.5 0 0 1 5 7l1.35-1.615L3.92 1.82Z" fill="#142B35"/></svg><svg fill="none" viewBox="0 0 88 88" id="residential_moving" xmlns="http://www.w3.org/2000/svg"><g clip-path="url(#ha)" fill="#3A98B2"><path d="M51.031 40.094a.78.78 0 0 0-.781.781v13.281a.78.78 0 1 0 1.563 0V40.875a.78.78 0 0 0-.782-.781ZM68.219 59.625H65.89a.78.78 0 1 0 0 1.563h2.328a.78.78 0 1 0 0-1.563Z"/><path d="M68.219 59.625a.78.78 0 0 0-.781.781v3.125a.78.78 0 1 0 1.562 0v-3.125a.78.78 0 0 0-.781-.781ZM26.813 62.75h-.003l-5.469.016a.78.78 0 0 0 .003 1.563h.002l5.469-.016a.78.78 0 0 0-.003-1.563ZM67.438 55.719h-.782a.78.78 0 1 0 0 1.562h.781a.78.78 0 1 0 0-1.562Z"/><path d="M67.438 50.25a.78.78 0 0 0-.782.781v9.375a.78.78 0 1 0 1.563 0v-9.375a.78.78 0 0 0-.781-.781ZM62.75 40.094H51.031a.78.78 0 1 0 0 1.562H62.75a.78.78 0 1 0 0-1.562Z"/><path d="m68.147 50.704-4.688-10.156a.78.78 0 1 0-1.419.654l4.688 10.157a.781.781 0 0 0 1.419-.655ZM21.344 59.625a.78.78 0 0 0-.782.781v3.175a.78.78 0 1 0 1.563 0v-3.175a.78.78 0 0 0-.781-.781Z"/><path d="M19.781 49.469a.78.78 0 0 0-.781.781v10.156a.78.78 0 1 0 1.563 0V50.25a.78.78 0 0 0-.782-.781Z"/><path d="M51.031 49.469h-31.25a.78.78 0 1 0 0 1.562h31.25a.78.78 0 1 0 0-1.562ZM23.688 59.625H19.78a.78.78 0 1 0 0 1.563h3.907a.78.78 0 1 0 0-1.563ZM31.5 58.063a5.476 5.476 0 0 0-5.469 5.468A5.476 5.476 0 0 0 31.5 69a5.476 5.476 0 0 0 5.469-5.469 5.476 5.476 0 0 0-5.469-5.468Zm0 9.374a3.91 3.91 0 0 1-3.906-3.906 3.91 3.91 0 0 1 3.906-3.906 3.91 3.91 0 0 1 3.906 3.906 3.91 3.91 0 0 1-3.906 3.907Z"/><path d="M31.5 61.188a2.347 2.347 0 0 0-2.344 2.343 2.347 2.347 0 0 0 2.344 2.344 2.347 2.347 0 0 0 2.344-2.344 2.347 2.347 0 0 0-2.344-2.343Zm0 3.124a.782.782 0 1 1 0-1.563.782.782 0 0 1 0 1.563ZM57.281 61.188a2.347 2.347 0 0 0-2.343 2.343 2.347 2.347 0 0 0 2.343 2.344 2.347 2.347 0 0 0 2.344-2.344 2.347 2.347 0 0 0-2.344-2.343Zm0 3.124a.782.782 0 1 1 0-1.563.782.782 0 0 1 0 1.563Z"/><path d="M57.281 58.063a5.476 5.476 0 0 0-5.468 5.468A5.476 5.476 0 0 0 57.28 69a5.476 5.476 0 0 0 5.469-5.469 5.476 5.476 0 0 0-5.469-5.468Zm0 9.374a3.91 3.91 0 0 1-3.906-3.906 3.91 3.91 0 0 1 3.906-3.906 3.91 3.91 0 0 1 3.907 3.906 3.91 3.91 0 0 1-3.907 3.907Z"/><path d="M52.613 62.75H36.188a.78.78 0 1 0 0 1.563h16.425a.78.78 0 1 0 0-1.563ZM68.219 62.75h-6.25a.78.78 0 1 0 0 1.563h6.25a.78.78 0 1 0 0-1.563ZM67.438 50.25h-9.376a.78.78 0 1 0 0 1.563h9.376a.78.78 0 1 0 0-1.563Z"/><path d="M58.063 50.25a2.347 2.347 0 0 1-2.344-2.344.78.78 0 1 0-1.563 0 3.91 3.91 0 0 0 3.907 3.907.78.78 0 1 0 0-1.563Z"/><path d="M54.938 40.094a.78.78 0 0 0-.782.781v7.031a.78.78 0 1 0 1.563 0v-7.031a.78.78 0 0 0-.782-.781ZM53.375 30.719a.78.78 0 0 0-.781.781v3.125a.78.78 0 1 0 1.562 0V31.5a.78.78 0 0 0-.781-.781ZM22.906 32.17a.78.78 0 0 0-.781.78v17.3a.78.78 0 1 0 1.563 0v-17.3a.78.78 0 0 0-.782-.78ZM51.031 32.17a.78.78 0 0 0-.781.78v17.3a.78.78 0 1 0 1.563 0v-17.3a.78.78 0 0 0-.782-.78Z"/><path d="M53.828 30.864 37.422 19.145a.782.782 0 0 0-.908 0l-16.406 11.72a.78.78 0 1 0 .908 1.27L36.97 20.741 52.92 32.135a.777.777 0 0 0 1.088-.181.78.78 0 0 0-.181-1.09Z"/><path d="M53.828 33.99 37.422 22.27a.782.782 0 0 0-.908 0L20.108 33.99a.78.78 0 1 0 .908 1.27L36.97 23.866 52.92 35.26a.777.777 0 0 0 1.088-.181.78.78 0 0 0-.181-1.09Z"/><path d="M20.563 30.719a.78.78 0 0 0-.782.781v3.125a.78.78 0 1 0 1.563 0V31.5a.78.78 0 0 0-.782-.781ZM39.313 40.094a.78.78 0 0 0-.782.781v9.375a.78.78 0 1 0 1.563 0v-9.375a.78.78 0 0 0-.782-.781Z"/><path d="M39.313 40.094h-4.688a.78.78 0 1 0 0 1.562h4.688a.78.78 0 1 0 0-1.562Z"/><path d="M34.625 40.094a.78.78 0 0 0-.781.781v9.375a.78.78 0 1 0 1.562 0v-9.375a.78.78 0 0 0-.781-.781ZM31.5 36.188h-5.469a.78.78 0 0 0-.781.78v5.47c0 .431.35.78.781.78H31.5a.78.78 0 0 0 .781-.78v-5.47a.78.78 0 0 0-.781-.78Zm-.781 5.468h-3.907V37.75h3.907v3.906ZM47.906 36.188h-5.468a.78.78 0 0 0-.782.78v5.47c0 .431.35.78.782.78h5.468a.78.78 0 0 0 .782-.78v-5.47a.78.78 0 0 0-.782-.78Zm-.781 5.468h-3.906V37.75h3.906v3.906ZM36.969 29.156a3.128 3.128 0 0 0-3.125 3.125 3.128 3.128 0 0 0 3.125 3.125 3.128 3.128 0 0 0 3.125-3.125 3.128 3.128 0 0 0-3.125-3.125Zm0 4.688c-.862 0-1.563-.701-1.563-1.563a1.564 1.564 0 0 1 3.125 0c0 .862-.7 1.563-1.562 1.563Z"/></g><circle opacity=".3" cx="44" cy="44" r="44" fill="#ABD2D9"/><defs><clipPath id="ha"><path fill="#fff" transform="translate(19 19)" d="M0 0h50v50H0z"/></clipPath></defs></svg><svg fill="none" viewBox="0 0 88 88" id="storage_units" xmlns="http://www.w3.org/2000/svg"><g clip-path="url(#ia)" fill="#3A98B2"><path d="M68.588 33.282 44.422 19.116a.833.833 0 0 0-.824-.011L19.43 32.438a.832.832 0 0 0-.431.73v35c0 .46.373.832.833.832H24c.46 0 .833-.372.833-.833V39.001h38.334v29.166c0 .461.372.834.833.834h4.167c.46 0 .833-.373.833-.834V34.001a.832.832 0 0 0-.412-.719Zm-1.255 34.052h-2.5V38.167a.833.833 0 0 0-.833-.833H24a.834.834 0 0 0-.833.833v29.167h-2.5V33.659l23.32-12.867 23.346 13.686v32.856Z"/><path d="M60.667 57.333h-10a.832.832 0 0 0-.834.833v10c0 .461.373.834.834.834h10c.46 0 .833-.373.833-.834v-10a.833.833 0 0 0-.833-.833Zm-.834 10H51.5V59h8.333v8.333Z"/><path d="M56.5 58.166v2.5h-1.667v-2.5h-1.666V61.5c0 .46.372.833.833.833h3.333c.461 0 .834-.372.834-.833v-3.334H56.5ZM50.667 57.333h-10a.833.833 0 0 0-.834.833v10c0 .461.374.834.834.834h10c.46 0 .833-.373.833-.834v-10a.833.833 0 0 0-.833-.833Zm-.834 10H41.5V59h8.333v8.333Z"/><path d="M46.5 58.166v2.5h-1.667v-2.5h-1.666V61.5c0 .46.373.833.833.833h3.333c.461 0 .834-.372.834-.833v-3.334H46.5ZM60.667 47.333h-10a.832.832 0 0 0-.834.833v10c0 .461.373.834.834.834h10c.46 0 .833-.373.833-.834v-10a.833.833 0 0 0-.833-.833Zm-.834 10H51.5V49h8.333v8.333Z"/><path d="M56.5 48.166v2.5h-1.667v-2.5h-1.666V51.5c0 .46.372.833.833.833h3.333c.461 0 .834-.372.834-.833v-3.334H56.5ZM64 44H24v1.666h40V44ZM64 40.666H24v1.667h40v-1.666ZM48.167 30.666h-8.334A.834.834 0 0 0 39 31.5v3.333c0 .46.373.833.833.833h8.334c.46 0 .833-.373.833-.833V31.5a.833.833 0 0 0-.833-.834ZM47.333 34h-6.666v-1.667h6.666V34Z"/></g><circle opacity=".3" cx="44" cy="44" r="44" fill="#ABD2D9"/><defs><clipPath id="ia"><path fill="#fff" transform="translate(19 19)" d="M0 0h50v50H0z"/></clipPath></defs></svg></svg>